<?xml version="1.0" standalone="no"?>
<!DOCTYPE svg PUBLIC "-//W3C//DTD SVG 20010904//EN"
 "http://www.w3.org/TR/2001/REC-SVG-20010904/DTD/svg10.dtd">
<svg version="1.0" xmlns="http://www.w3.org/2000/svg"
 width="1080.000000pt" height="607.000000pt" viewBox="0 0 1080.000000 607.000000"
 preserveAspectRatio="xMidYMid meet">

<g transform="translate(0.000000,607.000000) scale(0.100000,-0.100000)"
fill="#000000" stroke="none">
<path d="M0 3035 l0 -3035 5400 0 5400 0 0 3035 0 3035 -5400 0 -5400 0 0
-3035z m3791 1602 c19 -12 43 -40 53 -61 17 -36 18 -47 7 -145 -13 -122 -39
-226 -117 -466 -122 -373 -147 -531 -125 -786 14 -161 12 -171 -35 -183 -14
-4 -42 -2 -63 4 -49 13 -155 82 -176 114 -9 13 -49 123 -90 244 -116 349 -164
421 -214 324 -35 -68 -50 -145 -59 -299 -8 -142 -11 -157 -41 -217 -22 -45
-51 -82 -94 -121 -57 -52 -65 -56 -97 -50 -126 23 -267 164 -288 287 -7 43 -8
43 -54 46 -71 5 -109 -17 -179 -102 -63 -77 -137 -136 -171 -136 -10 0 -41 11
-68 25 -69 35 -103 32 -218 -20 -144 -65 -216 -81 -308 -68 -95 14 -177 53
-209 101 -49 72 -33 147 86 410 38 84 69 154 69 156 0 13 -85 39 -180 57 -177
31 -225 67 -199 148 16 49 37 79 59 86 25 8 120 -10 246 -45 56 -16 121 -30
145 -32 l44 -3 27 70 c15 39 39 106 54 149 31 88 74 159 117 190 22 17 43 21
99 21 65 0 72 -2 95 -29 40 -47 30 -106 -45 -262 -72 -151 -82 -188 -55 -199
10 -4 104 -11 208 -14 178 -6 192 -8 223 -29 17 -13 32 -27 32 -31 0 -17 -69
-71 -109 -86 -61 -21 -193 -35 -340 -35 l-124 0 -31 -33 c-39 -42 -196 -353
-196 -388 0 -46 22 -54 101 -41 84 14 234 73 290 114 33 24 40 34 34 51 -16
51 -11 61 36 85 25 12 85 29 133 37 78 12 94 18 135 53 25 22 94 108 153 193
82 119 120 185 166 289 71 164 100 211 153 249 60 44 106 48 175 17 46 -21 71
-26 139 -26 75 0 86 -3 122 -29 62 -45 80 -78 97 -177 30 -169 165 -544 195
-544 21 0 90 390 141 795 37 294 42 317 77 344 37 30 128 29 174 -2z m3093 2
c30 -24 33 -53 11 -124 -17 -58 -8 -75 40 -75 44 0 160 -36 211 -66 65 -37
132 -118 150 -182 45 -155 -32 -277 -307 -488 -76 -58 -140 -111 -143 -120
-20 -51 146 -158 335 -215 38 -12 80 -18 92 -15 25 6 87 84 126 157 l24 46
-31 46 c-65 94 -33 137 103 137 75 0 76 0 120 41 59 54 136 157 235 313 92
145 120 199 145 276 29 90 62 139 108 161 51 23 89 24 128 4 28 -15 33 -14
101 16 65 28 79 31 138 25 89 -8 222 -42 299 -77 101 -46 230 -148 316 -252
105 -127 188 -250 238 -354 52 -110 55 -170 12 -258 -32 -65 -127 -171 -231
-255 -77 -63 -282 -200 -410 -274 -73 -42 -87 -46 -145 -46 -87 1 -143 15
-209 54 -30 19 -73 39 -95 46 -105 33 -135 66 -206 228 -23 54 -48 105 -57
115 -13 14 -34 17 -140 17 -153 0 -185 -12 -284 -109 -67 -67 -91 -112 -69
-134 7 -7 49 -13 94 -15 109 -4 127 -8 127 -32 0 -26 -41 -46 -124 -61 -159
-30 -399 42 -778 232 l-159 80 -33 -21 c-42 -26 -98 -86 -170 -183 -33 -45
-64 -77 -74 -77 -10 0 -50 9 -90 20 l-73 20 -146 -65 c-194 -87 -279 -109
-413 -109 -110 0 -149 9 -260 62 -59 29 -180 140 -180 166 0 30 -36 16 -151
-56 -63 -39 -142 -84 -176 -100 -59 -28 -67 -29 -177 -26 -77 2 -116 -1 -116
-8 0 -15 45 -54 115 -102 33 -22 75 -56 94 -76 26 -27 47 -38 90 -46 152 -30
216 -62 312 -157 59 -58 81 -74 96 -69 11 4 51 43 88 87 91 107 219 220 291
255 58 29 61 29 217 27 150 -2 160 -3 201 -27 24 -14 55 -38 68 -54 13 -15 28
-31 34 -35 7 -4 100 11 208 33 168 34 209 39 284 34 196 -11 402 -117 492
-252 25 -38 30 -55 30 -109 0 -35 3 -63 8 -63 15 0 72 40 72 51 0 7 -12 28
-26 46 l-26 35 27 28 c84 88 365 176 538 169 149 -7 260 -83 381 -262 35 -51
67 -87 76 -87 18 0 60 56 154 207 68 110 99 135 172 141 50 4 56 2 89 -31 28
-28 35 -43 35 -74 0 -51 -27 -91 -175 -263 -132 -153 -204 -250 -245 -330 -40
-81 -45 -111 -20 -138 60 -64 220 18 418 217 106 106 144 193 176 401 17 116
27 141 62 169 39 31 99 28 155 -8 50 -31 89 -75 89 -99 0 -8 -22 -63 -49 -122
-63 -135 -151 -397 -158 -474 -5 -53 -4 -58 13 -55 36 7 146 277 199 490 49
198 63 237 88 251 12 6 67 15 122 19 63 5 129 17 178 33 146 49 246 30 290
-54 15 -30 18 -53 14 -155 -4 -96 -12 -149 -42 -264 -44 -171 -141 -454 -195
-566 -49 -103 -77 -130 -123 -121 -43 8 -82 38 -103 78 -31 59 -4 154 119 430
84 187 117 293 124 391 l6 77 -39 0 c-33 0 -45 -7 -94 -58 -68 -70 -132 -194
-245 -482 -87 -220 -122 -293 -160 -339 -29 -34 -50 -38 -102 -19 -28 10 -38
9 -62 -5 -81 -48 -170 6 -242 146 -11 20 -24 37 -30 37 -6 0 -51 -23 -99 -51
-110 -63 -195 -91 -285 -93 -61 -1 -79 3 -137 32 -65 32 -99 65 -111 107 -3
11 -11 39 -17 63 -7 27 -16 42 -26 42 -9 0 -78 -29 -153 -64 -75 -36 -157 -70
-181 -75 -25 -6 -106 -11 -180 -11 -154 0 -190 11 -287 88 -61 49 -91 98 -128
209 -23 71 -29 82 -43 74 -9 -5 -66 -50 -127 -100 -60 -50 -136 -105 -167
-123 -32 -18 -58 -38 -58 -44 0 -16 68 -76 124 -109 152 -89 444 -181 652
-205 121 -14 128 -18 115 -53 -19 -49 -64 -67 -171 -67 -109 0 -198 19 -370
79 -114 39 -145 52 -418 170 -102 45 -148 60 -165 55 -12 -3 -52 -26 -89 -50
-100 -64 -123 -74 -170 -74 -59 0 -102 29 -139 95 -17 30 -35 55 -40 55 -4 0
-57 -23 -116 -51 -146 -68 -226 -89 -359 -96 -97 -5 -121 -3 -185 16 -167 51
-264 141 -290 273 -10 47 -8 66 10 138 12 45 20 85 17 87 -6 6 -60 -23 -126
-67 -30 -20 -98 -57 -150 -82 -52 -24 -101 -52 -109 -61 -36 -45 48 -153 287
-367 96 -86 107 -113 49 -118 -124 -10 -370 127 -539 302 -59 60 -89 85 -92
75 -3 -8 -25 -71 -49 -141 -25 -70 -52 -139 -61 -154 -16 -23 -22 -25 -59 -19
-54 9 -133 49 -147 74 -5 11 -10 36 -10 55 0 20 -5 36 -10 36 -6 0 -64 -22
-129 -50 -65 -27 -167 -62 -227 -76 -293 -72 -594 -5 -791 178 -28 26 -58 48
-65 48 -7 0 -47 -9 -88 -21 -264 -73 -291 -79 -326 -64 -18 7 -54 33 -79 56
-54 50 -53 50 -102 -46 -38 -74 -62 -105 -83 -105 -36 0 -130 130 -130 179 0
38 37 118 129 279 130 228 173 322 179 398 6 74 -3 80 -88 64 -68 -13 -142
-60 -190 -122 -71 -89 -262 -494 -310 -656 -12 -41 -28 -76 -37 -79 -8 -3 -39
6 -68 20 -70 36 -89 35 -114 -8 -17 -29 -26 -35 -55 -35 -63 0 -147 40 -202
98 -29 29 -60 52 -72 52 -11 0 -74 -21 -139 -47 -108 -43 -125 -48 -203 -48
-81 0 -89 2 -181 47 -109 53 -159 100 -159 149 0 66 77 224 246 509 141 238
216 328 297 359 63 24 126 3 147 -50 28 -66 -9 -143 -239 -492 -148 -226 -189
-302 -178 -332 20 -50 229 28 354 132 144 120 333 458 333 593 0 59 22 94 74
118 70 33 116 38 146 14 35 -28 82 -117 82 -155 0 -18 -30 -101 -66 -185 -36
-83 -96 -221 -132 -304 -37 -84 -69 -171 -72 -193 -5 -39 -5 -40 15 -22 11 10
64 109 116 220 71 148 106 238 133 333 74 267 74 266 114 306 31 32 44 38 79
38 56 0 103 -21 130 -59 12 -17 30 -31 40 -31 10 0 65 21 122 46 238 105 313
111 388 30 14 -14 32 -26 40 -26 9 0 79 16 156 36 133 34 145 35 255 29 161
-8 204 -23 281 -93 107 -96 124 -105 177 -99 26 3 110 26 187 51 194 63 256
76 360 76 80 0 95 -3 127 -25 20 -14 47 -25 60 -25 25 0 244 57 266 69 19 11
-46 67 -213 186 -77 54 -201 153 -275 220 -187 166 -167 154 -180 103 -42
-164 -63 -198 -120 -198 -71 0 -150 69 -150 132 0 15 24 98 54 185 29 87 68
224 86 303 80 360 149 564 218 645 56 66 117 82 166 44 72 -57 72 -120 -4
-324 -57 -154 -83 -258 -67 -264 17 -6 68 57 151 189 137 217 208 290 280 290
53 0 98 -81 81 -147 -4 -17 -63 -86 -149 -173 -221 -225 -336 -377 -336 -441
0 -75 122 -253 200 -294 l27 -14 7 84 c3 46 18 121 32 167 42 134 156 347 285
533 15 22 42 75 59 117 24 60 43 88 80 121 117 105 334 164 462 125 50 -15
130 -86 165 -145 15 -25 45 -91 68 -146 23 -56 46 -102 52 -104 5 -2 53 49
106 114 109 134 212 242 275 285 78 54 120 68 209 68 l82 0 51 45 c45 40 56
45 99 45 77 0 86 -18 84 -151 -2 -98 0 -109 15 -109 27 0 139 40 150 53 5 7
19 46 31 87 24 82 33 97 71 123 36 25 120 23 154 -4z m2977 -685 c63 -32 87
-158 53 -275 -38 -127 -160 -321 -225 -355 -29 -15 -35 -15 -76 1 -24 9 -51
27 -59 40 -14 21 -11 30 41 141 57 121 68 164 81 324 6 74 10 88 35 112 22 23
36 28 74 28 25 0 60 -7 76 -16z m518 -104 c68 -50 71 -68 27 -153 -79 -152
-131 -228 -211 -309 -132 -135 -317 -257 -388 -258 -31 0 -40 5 -57 33 -37 60
-30 74 89 177 95 83 315 355 353 438 15 34 37 71 48 82 31 31 88 26 139 -10z
m-9845 -169 c70 -64 123 -259 133 -492 3 -75 3 -147 0 -162 -4 -15 -24 -36
-50 -52 l-43 -28 4 -59 c5 -69 -2 -78 -61 -78 -31 0 -55 13 -150 83 -61 45
-142 104 -179 130 -82 58 -118 103 -118 146 0 45 35 108 70 126 52 27 83 19
152 -36 35 -28 76 -58 92 -66 l29 -15 -7 54 c-4 29 -32 118 -62 198 -30 79
-54 155 -54 168 0 54 125 129 190 115 14 -3 38 -17 54 -32z m9582 -734 c101
-41 239 -132 296 -196 95 -106 203 -328 233 -479 15 -71 15 -94 5 -145 -33
-173 -172 -292 -451 -389 -83 -29 -106 -33 -199 -33 -115 0 -158 14 -210 70
-23 25 -25 33 -24 128 1 83 7 121 31 202 75 249 126 433 148 536 18 86 31 123
55 158 39 54 35 65 -40 103 -66 34 -64 32 -50 57 18 34 105 29 206 -12z"/>
<path d="M2833 4048 c-51 -58 -107 -188 -149 -342 -42 -158 -33 -278 16 -219
41 50 126 303 164 482 20 98 10 124 -31 79z"/>
<path d="M2441 3644 c-16 -33 -39 -72 -50 -89 -28 -40 -27 -45 12 -45 l32 0
22 93 c11 50 20 94 18 96 -2 1 -17 -23 -34 -55z"/>
<path d="M8307 4474 c-4 -4 -7 -35 -7 -70 0 -50 -7 -76 -35 -135 -45 -96 -62
-168 -75 -309 -18 -206 -12 -240 44 -240 28 0 66 -34 66 -59 0 -11 -23 -41
-50 -68 l-51 -48 18 -59 c16 -53 44 -89 57 -75 14 14 118 616 136 789 15 142
18 150 56 186 19 18 34 37 34 42 0 17 -29 29 -85 36 -27 4 -61 9 -75 12 -14 2
-29 2 -33 -2z"/>
<path d="M8721 4271 c-63 -63 -126 -388 -152 -784 -13 -207 -10 -227 44 -227
141 0 397 162 463 293 24 46 25 58 22 156 -3 101 -5 110 -45 191 -83 169 -251
390 -296 390 -9 0 -25 -8 -36 -19z"/>
<path d="M6824 4230 c-32 -48 -143 -321 -137 -337 6 -14 92 -43 131 -43 36 0
98 44 174 122 67 70 103 137 93 175 -18 72 -94 123 -183 123 -49 0 -53 -2 -78
-40z"/>
<path d="M6043 4234 c-47 -23 -176 -162 -265 -284 -172 -238 -308 -501 -308
-599 0 -36 41 -70 114 -95 87 -28 178 -15 291 41 181 92 363 276 328 331 -17
28 -83 26 -154 -2 -34 -15 -67 -26 -73 -26 -6 0 -35 11 -63 25 -68 31 -70 55
-10 112 96 92 195 142 280 143 51 0 68 -5 118 -37 33 -20 61 -34 64 -31 5 4
155 368 155 374 0 2 -24 4 -53 4 -68 0 -89 -16 -117 -87 -35 -87 -76 -168 -94
-182 -35 -29 -206 85 -206 137 0 9 9 46 20 82 21 67 25 110 13 110 -5 0 -22
-8 -40 -16z"/>
<path d="M5226 4184 c-22 -19 -57 -39 -78 -46 -49 -14 -68 -37 -75 -86 -10
-72 68 -203 137 -232 42 -18 55 -3 75 83 21 92 20 176 -2 253 l-18 62 -39 -34z"/>
<path d="M7910 3897 c-30 -62 -56 -115 -58 -119 -6 -13 69 -21 81 -9 9 9 40
231 33 238 -1 1 -26 -49 -56 -110z"/>
<path d="M4796 3855 c-91 -120 -187 -361 -190 -476 -1 -82 17 -109 74 -109 62
0 197 91 339 229 118 114 167 191 124 191 -42 0 -125 53 -206 129 -48 44 -91
81 -96 81 -6 0 -26 -20 -45 -45z"/>
<path d="M6711 2777 c-5 -5 -8 -22 -5 -37 15 -71 -38 -220 -141 -400 -63 -111
-66 -136 -13 -125 85 18 234 122 347 240 153 162 148 256 -18 304 -81 24 -156
32 -170 18z"/>
<path d="M5673 2678 c-92 -89 -247 -289 -291 -377 -33 -67 -36 -81 -37 -157 0
-81 1 -84 32 -116 30 -29 40 -33 103 -36 86 -5 140 8 249 59 107 50 180 105
209 158 l24 41 -34 15 c-19 7 -84 19 -144 25 -136 14 -209 34 -241 66 -43 43
-29 56 92 84 l110 26 -3 60 c-2 32 4 90 12 127 9 38 16 72 16 78 0 24 -38 3
-97 -53z"/>
<path d="M3075 2697 c-7 -18 -17 -46 -21 -63 -13 -55 -75 -166 -181 -325 -59
-88 -103 -162 -100 -165 16 -17 268 155 348 237 65 67 151 189 180 254 19 43
19 48 5 71 -16 23 -21 24 -117 24 l-100 0 -14 -33z"/>
<path d="M6294 2715 c-75 -20 -165 -63 -196 -92 -27 -26 -40 -56 -53 -120 -6
-31 -6 -32 54 -49 73 -20 106 -48 121 -103 7 -26 15 -39 22 -35 13 9 130 252
152 317 9 26 16 59 16 72 0 22 -4 25 -32 24 -18 0 -56 -6 -84 -14z"/>
<path d="M4802 2688 c-17 -22 -163 -318 -173 -350 l-8 -31 52 6 c119 12 296
125 392 251 l28 37 -30 37 c-16 20 -45 42 -64 49 -47 16 -184 17 -197 1z"/>
<path d="M2684 2682 c-6 -4 -35 -65 -63 -137 -28 -71 -87 -197 -131 -279 -44
-83 -78 -151 -76 -153 9 -10 326 546 326 571 0 8 -42 7 -56 -2z"/>
<path d="M3820 2639 c-81 -12 -163 -49 -185 -83 -17 -25 -17 -28 -1 -45 42
-47 178 -84 359 -99 136 -11 149 -21 151 -112 2 -102 -23 -113 -316 -135 -260
-20 -462 -71 -519 -131 -22 -23 -22 -27 -9 -52 8 -15 38 -38 65 -52 45 -23 64
-25 196 -28 105 -3 170 1 233 13 114 21 347 93 367 114 35 35 278 565 265 578
-2 2 -31 -3 -64 -11 -88 -23 -137 -20 -227 15 -90 36 -200 45 -315 28z"/>
<path d="M7695 2568 c-109 -57 -304 -247 -350 -343 -26 -52 -27 -58 -13 -93
18 -49 49 -64 113 -56 146 18 406 168 481 276 50 72 27 172 -50 219 -43 26
-128 25 -181 -3z"/>
<path d="M3375 2319 c-27 -28 -33 -40 -20 -35 11 4 50 10 88 13 37 3 67 9 67
13 0 11 -44 38 -71 45 -19 5 -32 -3 -64 -36z"/>
<path d="M10186 2683 c-29 -44 -67 -136 -96 -234 -50 -168 -101 -502 -86 -563
l7 -29 77 6 c200 14 355 119 385 262 25 120 -34 315 -147 483 -83 125 -101
134 -140 75z"/>
</g>
</svg>
